# xmcd
#
# Track frame offsets:
#	150
#	13702
#	25170
#	40345
#	53385
#	64414
#	79057
#	94815
#	111600
#	125382
#	139127
#	152622
#	162187
#	175067
#	187915
#	201205
#	216897
#	233967
#	251862
#	266117
#	282847
#
# Disc length: 3959 seconds
#
# Revision: 1
# Processed by: cddbd v1.4PL0 Copyright (c) Steve Scherf et al.
# Submitted via: CDmax 1.8
#
DISCID=2d0f7515
DTITLE=Dave Kelley Band - Making Whoopie 1979/1982
DYEAR=2001
DGENRE=Country
TTITLE0=Making Whoopie
TTITLE1=Hey Baby
TTITLE2=Ungrateful
TTITLE3=Return To Sender
TTITLE4=Put Your Money Where Your Mouth Is
TTITLE5=I'm Into Something Good
TTITLE6=My Best Part Of Breking Up
TTITLE7=It Feels Right
TTITLE8=Dawn Surprise
TTITLE9=You're Gonna Make Me Lonesome When You Go
TTITLE10=Two More Bottles Of Wine
TTITLE11=Red Red Wine
TTITLE12=House Lights
TTITLE13=Don't Cha Hang Up The Phone
TTITLE14=Can't Win 'Em All
TTITLE15=Time After Time
TTITLE16=When I'm Dead And Gone
TTITLE17=That's Why
TTITLE18=My Heart In Your Hands
TTITLE19=Worried Man
TTITLE20=Lights Out
EXTD=
EXTT0=
EXTT1=
EXTT2=
EXTT3=
EXTT4=
EXTT5=
EXTT6=
EXTT7=
EXTT8=
EXTT9=
EXTT10=
EXTT11=
EXTT12=
EXTT13=
EXTT14=
EXTT15=
EXTT16=
EXTT17=
EXTT18=
EXTT19=
EXTT20=
PLAYORDER=
